<svg class="icon" viewBox="0 0 1024 1024" xmlns="http://www.w3.org/2000/svg" width="200" height="200"><path d="M747.52 692.48c-2.56 0-6.4-1.28-7.68-3.84C696.32 640 672 576 672 510.72s25.6-128 70.4-176.64c2.56-2.56 6.4-3.84 10.24-3.84 96 16.64 175.36 85.76 204.8 179.2 1.28 2.56 1.28 5.12 0 6.4-32 93.44-111.36 160-207.36 175.36-1.28 1.28-1.28 1.28-2.56 1.28zm7.68-339.2c-38.4 43.52-60.16 99.84-60.16 157.44 0 58.88 20.48 113.92 57.6 158.72 84.48-15.36 154.88-75.52 183.04-156.16-26.88-81.92-96-143.36-180.48-160z" fill="#231815"/><path d="M728.32 587.52c-2.56 0-3.84-1.28-5.12-3.84l-1.28-5.12c-1.28-2.56 1.28-6.4 3.84-6.4 2.56-1.28 6.4 1.28 6.4 3.84l1.28 5.12c1.28 2.56-1.28 6.4-3.84 6.4h-1.28zm33.28 62.72c-1.28 0-3.84-1.28-3.84-2.56-10.24-14.08-19.2-28.16-25.6-44.8-1.28-2.56 0-6.4 2.56-7.68 2.56-1.28 6.4 0 7.68 2.56 6.4 14.08 14.08 26.88 23.04 39.68 58.88-15.36 108.8-55.04 135.68-110.08 1.28-2.56 5.12-3.84 7.68-2.56 2.56 1.28 3.84 5.12 2.56 7.68-29.44 58.88-83.2 101.12-145.92 116.48l-3.84 1.28zm-232.96 43.52c-2.56 0-5.12-1.28-7.68-2.56-3.84-3.84-5.12-11.52-1.28-15.36 40.96-44.8 62.72-102.4 62.72-162.56s-21.76-117.76-62.72-162.56c-3.84-3.84-3.84-11.52 1.28-15.36 3.84-3.84 11.52-3.84 15.36 1.28 44.8 48.64 69.12 111.36 69.12 177.92s-24.32 129.28-69.12 177.92c-1.28 0-5.12 1.28-7.68 1.28zm-120.32-35.84c-2.56 0-5.12-1.28-7.68-2.56-3.84-3.84-5.12-11.52-1.28-15.36 32-34.56 48.64-79.36 48.64-126.72s-17.92-92.16-48.64-126.72c-3.84-3.84-3.84-11.52 1.28-15.36 3.84-3.84 11.52-3.84 15.36 1.28 35.84 38.4 55.04 89.6 55.04 142.08s-19.2 102.4-55.04 142.08c-1.28 0-5.12 1.28-7.68 1.28zM288 622.08c-2.56 0-5.12-1.28-7.68-2.56-3.84-3.84-5.12-11.52-1.28-15.36 23.04-24.32 35.84-57.6 35.84-90.88 0-33.28-12.8-66.56-35.84-90.88-3.84-3.84-3.84-11.52 1.28-15.36 3.84-3.84 11.52-3.84 15.36 1.28 26.88 29.44 40.96 66.56 40.96 106.24 0 39.68-14.08 76.8-40.96 106.24-1.28 0-3.84 1.28-7.68 1.28zm519.68-98.56c-25.6 0-46.08-20.48-46.08-46.08s20.48-46.08 46.08-46.08 46.08 20.48 46.08 46.08c0 24.32-20.48 46.08-46.08 46.08zm0-71.68c-14.08 0-25.6 11.52-25.6 24.32s11.52 24.32 25.6 24.32S832 488.96 832 476.16s-10.24-24.32-24.32-24.32z" fill="#231815"/><path d="M683.52 523.52H200.96c-6.4 0-11.52-5.12-11.52-11.52s5.12-11.52 11.52-11.52h482.56c6.4 0 10.24 5.12 10.24 11.52s-3.84 11.52-10.24 11.52z" fill="#231815"/><path d="M107.52 616.96c-11.52 0-23.04-2.56-34.56-6.4-3.84-1.28-6.4-5.12-7.68-8.96 0-3.84 1.28-7.68 5.12-10.24 12.8-8.96 26.88-37.12 26.88-79.36 0-40.96-14.08-70.4-26.88-79.36-3.84-2.56-5.12-6.4-5.12-10.24s3.84-7.68 7.68-8.96c11.52-3.84 23.04-6.4 34.56-6.4 57.6 0 103.68 47.36 103.68 103.68s-46.08 106.24-103.68 106.24zm-10.24-23.04c3.84 0 6.4 1.28 10.24 1.28 44.8 0 81.92-37.12 81.92-81.92 0-44.8-37.12-81.92-81.92-81.92-3.84 0-6.4 0-10.24 1.28 12.8 19.2 21.76 48.64 21.76 81.92 0 30.72-8.96 60.16-21.76 79.36z" fill="#231815"/><path d="M134.4 572.16c-1.28 0-2.56 0-3.84-1.28-1.28-1.28-2.56-3.84-1.28-5.12 2.56-10.24 5.12-21.76 6.4-33.28 0-2.56 2.56-5.12 6.4-5.12 2.56 0 5.12 2.56 5.12 6.4-1.28 7.68-1.28 15.36-2.56 21.76 12.8-10.24 19.2-25.6 19.2-42.24 0-15.36-6.4-30.72-17.92-40.96-2.56-2.56-2.56-5.12 0-7.68 2.56-2.56 5.12-2.56 7.68 0 14.08 12.8 21.76 30.72 21.76 48.64 0 25.6-14.08 47.36-37.12 58.88-2.56-1.28-3.84 0-3.84 0z" fill="#231815"/></svg>